<?xml version="1.0" encoding="utf-8"?>
<!-- Generator: Adobe Illustrator 16.0.0, SVG Export Plug-In . SVG Version: 6.00 Build 0)  -->
<!DOCTYPE svg PUBLIC "-//W3C//DTD SVG 1.1//EN" "http://www.w3.org/Graphics/SVG/1.1/DTD/svg11.dtd">
<svg version="1.1" id="Calque_1" xmlns="http://www.w3.org/2000/svg" xmlns:xlink="http://www.w3.org/1999/xlink" x="0px" y="0px"
	 width="2500px" height="2500px" viewBox="0 0 2500 2500" enable-background="new 0 0 2500 2500" xml:space="preserve">
<path fill="none" d="M0,0.002h2500v2499.996H0V0.002z"/>
<path fill="#2062AF" d="M1882.25,2101.831l-632.26,170.242l-632.269-170.242L471.82,521.182h1556.35L1882.25,2101.831z"/>
<path fill="#3C9CD7" d="M1249.986,649.212v1487.08l1.43,0.39l511.661-137.778l118.101-1349.691H1249.986L1249.986,649.212z"/>
<path fill="#FFFFFF" d="M1249.425,1044.438l-452.529,188.467l15.007,186.596l437.522-187.069l465.41-198.984l19.296-190.88
	L1249.425,1044.438L1249.425,1044.438z"/>
<linearGradient id="SVGID_1_" gradientUnits="userSpaceOnUse" x1="-280.2817" y1="718.8374" x2="-280.2817" y2="638.0366" gradientTransform="matrix(4.6418 0 0 4.6418 2324.1675 -1917.2031)">
	<stop  offset="0.387" style="stop-color:#D1D3D4;stop-opacity:0"/>
	<stop  offset="1" style="stop-color:#D1D3D4"/>
</linearGradient>
<path fill="url(#SVGID_1_)" d="M796.891,1232.904l15.007,186.596l437.522-187.069v-187.993L796.891,1232.904z"/>
<linearGradient id="SVGID_2_" gradientUnits="userSpaceOnUse" x1="-179.3252" y1="678.5366" x2="-179.3252" y2="594.5474" gradientTransform="matrix(4.6418 0 0 4.6418 2324.1675 -1917.2031)">
	<stop  offset="0.387" style="stop-color:#D1D3D4;stop-opacity:0"/>
	<stop  offset="1" style="stop-color:#D1D3D4"/>
</linearGradient>
<path fill="url(#SVGID_2_)" d="M1734.131,842.57l-484.706,201.867v187.993l465.41-198.984L1734.131,842.57z"/>
<linearGradient id="SVGID_3_" gradientUnits="userSpaceOnUse" x1="-328.877" y1="754.876" x2="-134.812" y2="754.876" gradientTransform="matrix(4.6418 0 0 4.6418 2324.1675 -1917.2031)">
	<stop  offset="0" style="stop-color:#E8E7E5"/>
	<stop  offset="1" style="stop-color:#FFFFFF"/>
</linearGradient>
<path fill="url(#SVGID_3_)" d="M797.587,1232.904l15.012,186.596l671.32,2.14l-15.017,248.791l-220.903,62.191l-212.353-53.617
	l-12.867-154.424H825.465l25.739,298.12l398.939,117.957l396.776-115.817l51.479-591.937H797.587z"/>
<path opacity="0.05" enable-background="new    " d="M1249.425,1232.904H796.896l15.007,186.596l437.522,1.397V1232.904
	L1249.425,1232.904z M1249.425,1732.028l-2.145,0.599l-212.325-53.617l-12.867-154.424h-197.31l25.734,298.12l398.912,117.957
	V1732.028z"/>
<linearGradient id="SVGID_4_" gradientUnits="userSpaceOnUse" x1="-337.8062" y1="615.1089" x2="-127.1143" y2="615.1089" gradientTransform="matrix(4.6418 0 0 4.6418 2324.1675 -1917.2031)">
	<stop  offset="0" style="stop-color:#E8E7E5"/>
	<stop  offset="1" style="stop-color:#FFFFFF"/>
</linearGradient>
<path fill="url(#SVGID_4_)" d="M756.14,842.57h977.991l-19.296,190.88H779.729L756.14,842.57L756.14,842.57z"/>
<path opacity="0.05" enable-background="new    " d="M1249.425,842.57H756.141l23.589,190.88h469.695V842.57L1249.425,842.57z"/>
</svg>
