<?xml version="1.0" encoding="utf-8"?>
<!-- Generator: Adobe Illustrator 16.0.0, SVG Export Plug-In . SVG Version: 6.00 Build 0)  -->
<!DOCTYPE svg PUBLIC "-//W3C//DTD SVG 1.1//EN" "http://www.w3.org/Graphics/SVG/1.1/DTD/svg11.dtd">
<svg version="1.1" id="Calque_1" xmlns="http://www.w3.org/2000/svg" xmlns:xlink="http://www.w3.org/1999/xlink" x="0px" y="0px"
	 width="2500px" height="2438px" viewBox="0 0 2500 2438" enable-background="new 0 0 2500 2438" xml:space="preserve">
<radialGradient id="SVGID_1_" cx="566.3945" cy="1890.8877" r="0.7603" gradientTransform="matrix(2291.6716 0 0 -2218.7549 -1297131 4196152)" gradientUnits="userSpaceOnUse">
	<stop  offset="0" style="stop-color:#34364E;stop-opacity:0.98"/>
	<stop  offset="1" style="stop-color:#0C0824"/>
</radialGradient>
<path fill="url(#SVGID_1_)" d="M104.166,235.159h2291.673v2229.174H104.166V235.159z"/>
<path fill="#31C5F0" d="M104.166,235.159h2291.673v2229.174H104.166V235.159z M0,2568.502h2500.004V130.994H0V2568.502z
	 M1685.42,1130.996c-82.294,0-110.415,41.665-110.415,76.04c0,37.499,18.748,63.541,129.167,120.834
	c163.541,79.168,214.584,155.208,214.584,266.669c0,166.665-127.084,256.249-298.961,256.249
	c-90.625,0-168.753-18.752-213.543-44.789c-7.29-3.125-8.332-8.333-8.332-16.669v-153.126c0-10.415,5.208-13.544,12.503-8.332
	c65.624,42.711,140.623,61.459,209.372,61.459c82.293,0,116.668-34.375,116.668-81.252c0-37.5-23.959-70.833-129.171-125.001
	c-147.918-70.832-209.372-142.706-209.372-262.498c0-134.379,105.211-245.835,287.5-245.835c89.584,0,152.084,13.544,186.459,29.167
	c8.332,5.208,10.415,13.54,10.415,20.831v142.706c0,8.332-5.208,13.544-15.628,10.415
	C1820.835,1148.706,1753.127,1130.996,1685.42,1130.996L1685.42,1130.996z M789.584,1254.954
	c23.959,2.083,42.711,2.083,84.376,2.083c121.88,0,236.46-42.706,236.46-208.331c0-132.29-82.293-198.961-220.833-198.961
	c-41.665,0-81.252,2.083-100.003,3.125V1254.954z M604.171,701.827c0-7.291,14.585-12.503,22.913-12.503
	c66.671-3.124,165.628-5.207,268.752-5.207c288.541,0,401.039,158.333,401.039,360.419c0,264.582-191.666,378.125-427.081,378.125
	c-39.582,0-53.122-2.083-81.252-2.083v400.002c0,8.332-3.125,12.498-12.498,12.498H616.669c-8.332,0-12.503-3.124-12.503-12.498
	V701.827H604.171z"/>
</svg>
