<?xml version="1.0" encoding="utf-8"?>
<!-- Generator: Adobe Illustrator 16.0.0, SVG Export Plug-In . SVG Version: 6.00 Build 0)  -->
<!DOCTYPE svg PUBLIC "-//W3C//DTD SVG 1.1//EN" "http://www.w3.org/Graphics/SVG/1.1/DTD/svg11.dtd">
<svg version="1.1" id="Calque_1" xmlns="http://www.w3.org/2000/svg" xmlns:xlink="http://www.w3.org/1999/xlink" x="0px" y="0px"
	 width="1771px" height="2500px" viewBox="0 0 1771 2500" enable-background="new 0 0 1771 2500" xml:space="preserve">
<g>
	<path fill="#E44D26" d="M0,231.26l161.169,1807.729l723.244,200.778l725.24-201.064L1770.999,231.26H0z M1471.523,1923.607
		l-586.024,162.478v-230.073l-1.014,0.286l-454.157-126.075l-31.064-348.118h222.558l15.786,176.818l246.918,66.678l0.21-0.058
		v-0.022l0.764-0.206v-354.075h-0.765H389.354l-54.49-610.971l-5.313-59.481h555.184h0.765V379.074h723.913L1471.523,1923.607z"/>
	<polygon fill="#E44D26" points="571.859,822.5 592.125,1049.534 884.734,1049.534 885.499,1049.534 885.499,822.5 884.734,822.5 	
		"/>
	<polygon fill="#F16529" points="1157.751,1271.239 885.499,1271.239 885.499,1625.314 1132.011,1558.786 	"/>
	<polygon fill="#F16529" points="885.499,600.787 1440.12,600.787 1434.815,660.269 1424.713,772.663 1420.272,822.5 885.499,822.5 
		885.499,1049.534 1340.356,1049.534 1400.096,1049.534 1394.686,1109.072 1342.578,1692.754 1339.254,1730.223 885.499,1855.969 
		885.499,1856.012 885.499,2086.085 1471.523,1923.607 1609.412,379.074 885.499,379.074 	"/>
	<polygon fill="#EBEBEB" points="592.125,1049.534 571.859,822.5 884.734,822.5 884.734,600.787 329.551,600.787 334.863,660.269 
		389.354,1271.239 884.734,1271.239 884.734,1049.534 	"/>
	<polygon fill="#EBEBEB" points="884.735,1856.181 884.735,1625.543 884.525,1625.601 637.607,1558.923 621.821,1382.104 
		399.264,1382.104 430.328,1730.223 884.485,1856.298 885.499,1856.012 885.499,1855.969 	"/>
	<polygon fill="#FFFFFF" points="885.499,1625.314 884.735,1625.521 884.735,1625.543 885.499,1625.335 	"/>
	<polygon fill="#FFFFFF" points="885.499,1855.969 1339.254,1730.223 1342.578,1692.754 1394.686,1109.072 1400.096,1049.534 
		1340.356,1049.534 885.499,1049.534 885.499,1271.239 1157.751,1271.239 1132.011,1558.786 885.499,1625.314 885.499,1625.335 	"/>
	<polygon fill="#FFFFFF" points="1420.272,822.5 1424.713,772.663 1434.815,660.269 1440.12,600.787 885.499,600.787 885.499,822.5 
			"/>
	<polygon fill="#FFFFFF" points="885.499,1855.969 885.499,1625.335 884.735,1625.543 884.735,1856.181 	"/>
	<rect x="884.734" y="1049.534" fill="#FFFFFF" width="0.765" height="221.705"/>
	<rect x="884.734" y="600.787" fill="#FFFFFF" width="0.765" height="221.713"/>
</g>
</svg>
