<?xml version="1.0" encoding="utf-8"?>
<!-- Generator: Adobe Illustrator 16.0.0, SVG Export Plug-In . SVG Version: 6.00 Build 0)  -->
<!DOCTYPE svg PUBLIC "-//W3C//DTD SVG 1.1//EN" "http://www.w3.org/Graphics/SVG/1.1/DTD/svg11.dtd">
<svg version="1.1" id="Calque_1" xmlns="http://www.w3.org/2000/svg" xmlns:xlink="http://www.w3.org/1999/xlink" x="0px" y="0px"
	 width="2500px" height="2500px" viewBox="0 0 2500 2500" enable-background="new 0 0 2500 2500" xml:space="preserve">
<g>
	<defs>
		<path id="SVGID_1_" d="M1250,1837.142c616.427,0,1116.178-262.897,1116.178-587.154S1866.439,662.833,1250,662.833
			c-616.44,0-1116.178,262.884-1116.178,587.154C133.822,1574.257,633.573,1837.142,1250,1837.142L1250,1837.142z"/>
	</defs>
	<clipPath id="SVGID_2_">
		<use xlink:href="#SVGID_1_"  overflow="visible"/>
	</clipPath>
	<g clip-path="url(#SVGID_2_)">
		<g>
			<defs>
				<rect id="SVGID_3_" x="133.822" y="662.846" width="2232.343" height="1174.296"/>
			</defs>
			<clipPath id="SVGID_4_">
				<use xlink:href="#SVGID_3_"  overflow="visible"/>
			</clipPath>
			<g clip-path="url(#SVGID_4_)">
				
					<image overflow="visible" enable-background="new    " width="365" height="196" xlink:href="FC247DFE.png"  transform="matrix(6.2084 0 0 -6.1302 119.2227 1853.5381)">
				</image>
			</g>
		</g>
		<g>
			<defs>
				<path id="SVGID_5_" d="M1250,1837.142c616.427,0,1116.178-262.897,1116.178-587.154S1866.439,662.833,1250,662.833
					c-616.44,0-1116.178,262.884-1116.178,587.154C133.822,1574.257,633.573,1837.142,1250,1837.142L1250,1837.142z"/>
			</defs>
			<clipPath id="SVGID_6_">
				<use xlink:href="#SVGID_5_"  overflow="visible"/>
			</clipPath>
			<g clip-path="url(#SVGID_6_)">
				<g>
					<defs>
						<rect id="SVGID_7_" x="133.822" y="662.846" width="2232.343" height="1174.296"/>
					</defs>
					<clipPath id="SVGID_8_">
						<use xlink:href="#SVGID_7_"  overflow="visible"/>
					</clipPath>
					<g clip-path="url(#SVGID_8_)">
						
							<image overflow="visible" enable-background="new    " width="365" height="196" xlink:href="FC247E02.png"  transform="matrix(6.2084 0 0 -6.1302 119.2227 1853.5381)">
						</image>
					</g>
				</g>
				<path fill="#6E81B6" d="M1250,1793.55c592.368,0,1072.573-243.364,1072.573-543.55S1842.368,706.45,1250,706.45
					c-592.355,0-1072.574,243.364-1072.574,543.55S657.645,1793.55,1250,1793.55L1250,1793.55z"/>
				<path fill="#FFFFFF" d="M1467.282,1425.688l53.202-273.817c12.01-61.802,2.023-107.896-29.662-137.026
					c-30.699-28.183-82.812-41.892-159.308-41.892h-92.137l26.354-135.664c1.848-9.448-4.313-18.605-13.762-20.453
					c-1.102-0.216-2.223-0.324-3.346-0.324h-127.168c-8.354,0-15.525,5.927-17.121,14.124l-56.509,290.691
					c-5.136-32.71-17.794-60.828-38.053-84.031c-37.302-42.696-96.301-64.343-175.378-64.343H587.92
					c-8.354,0-15.525,5.927-17.12,14.11l-114.354,588.412c-0.999,5.123,0.337,10.39,3.657,14.41
					c3.308,4.033,8.235,6.355,13.463,6.355h128.167c8.353,0,15.524-5.928,17.12-14.138l27.664-142.317h95.406
					c50.063,0,92.137-5.421,124.977-16.108c33.578-10.92,64.485-29.441,91.722-54.939c22.01-20.22,40.193-42.865,54.188-67.287
					l-22.84,117.558c-0.998,5.123,0.338,10.415,3.658,14.409c3.307,4.034,8.248,6.355,13.462,6.355h127.169
					c8.353,0,15.524-5.927,17.12-14.111l62.761-322.985h87.261c37.184,0,48.078,7.405,51.049,10.583
					c2.685,2.905,8.262,13.139,1.997,45.395l-50.582,260.342c-1.819,9.476,4.387,18.632,13.862,20.451
					c1.074,0.206,2.164,0.312,3.258,0.313h129.191C1458.514,1439.777,1465.69,1433.873,1467.282,1425.688L1467.282,1425.688z
					 M877.703,1199.444c-7.989,41.049-23.035,70.321-44.746,87.014c-22.049,17.003-57.313,25.615-104.821,25.615h-56.808
					l41.075-211.381h73.447c53.954,0,75.692,11.529,84.421,21.192C882.372,1135.295,884.939,1162.13,877.703,1199.444z
					 M2002.947,1037.296c-37.289-42.696-96.288-64.343-175.364-64.343h-246.478c-8.365,0-15.525,5.927-17.12,14.11l-114.342,588.412
					c-1.012,5.123,0.324,10.39,3.645,14.41s8.262,6.355,13.45,6.355h128.18c8.365,0,15.525-5.928,17.12-14.138l27.665-142.317
					h95.418c50.076,0,92.111-5.421,124.964-16.108c33.592-10.92,64.499-29.441,91.722-54.939
					c22.724-20.868,41.413-44.331,55.576-69.661s24.318-53.578,30.245-83.979C2052.193,1140.12,2040.533,1080.304,2002.947,1037.296
					L2002.947,1037.296z M1878.164,1199.443c-8.002,41.05-23.047,70.322-44.732,87.015c-22.062,17.003-57.326,25.615-104.821,25.615
					h-56.82l41.062-211.381h73.461c53.955,0,75.691,11.529,84.434,21.192C1882.82,1135.295,1885.402,1162.13,1878.164,1199.443
					L1878.164,1199.443z"/>
				<path d="M785.851,1083.248c48.688,0,81.152,8.987,97.378,26.964c16.212,17.977,20.076,48.844,11.595,92.565
					c-8.872,45.537-25.939,78.039-51.23,97.52s-63.786,29.208-115.457,29.208h-77.975l47.858-246.257H785.851L785.851,1083.248z
					 M473.552,1578.797H601.72l30.414-156.429h109.789c48.441,0,88.298-5.097,119.581-15.278s59.726-27.236,85.314-51.191
					c21.479-19.728,38.857-41.517,52.165-65.329c13.294-23.813,22.735-50.076,28.326-78.804
					c13.566-69.752,3.333-124.082-30.674-162.991c-33.994-38.923-88.091-58.377-162.239-58.377H587.92L473.552,1578.797z
					 M1121.443,833.956h127.169l-30.401,156.441h113.304c71.256,0,120.45,12.425,147.506,37.288
					c27.055,24.862,35.161,65.16,24.344,120.865l-53.202,273.817h-129.191l50.582-260.355c5.746-29.622,3.645-49.816-6.355-60.594
					c-9.999-10.766-31.283-16.161-63.811-16.161h-101.632l-65.51,337.11h-127.169L1121.443,833.956z M1786.313,1083.248
					c48.688,0,81.139,8.987,97.377,26.964c16.213,17.977,20.064,48.844,11.582,92.565c-8.846,45.537-25.913,78.039-51.218,97.52
					c-25.277,19.48-63.785,29.208-115.431,29.208h-77.974l47.845-246.257H1786.313z M1473.988,1578.797h128.18l30.401-156.429
					h109.789c48.455,0,88.312-5.097,119.594-15.278c31.283-10.182,59.726-27.236,85.315-51.191
					c21.479-19.728,38.857-41.517,52.151-65.329s22.749-50.076,28.353-78.804c13.553-69.752,3.32-124.082-30.674-162.991
					c-34.02-38.923-88.104-58.377-162.252-58.377h-246.478L1473.988,1578.797L1473.988,1578.797z"/>
			</g>
		</g>
	</g>
</g>
</svg>
