<?xml version="1.0" encoding="utf-8"?>
<!-- Generator: Adobe Illustrator 16.0.0, SVG Export Plug-In . SVG Version: 6.00 Build 0)  -->
<!DOCTYPE svg PUBLIC "-//W3C//DTD SVG 1.1//EN" "http://www.w3.org/Graphics/SVG/1.1/DTD/svg11.dtd">
<svg version="1.1" id="Calque_1" xmlns="http://www.w3.org/2000/svg" xmlns:xlink="http://www.w3.org/1999/xlink" x="0px" y="0px"
	 width="283.465px" height="283.465px" viewBox="0 0 283.465 283.465" enable-background="new 0 0 283.465 283.465"
	 xml:space="preserve">
<g id="Ebene_x0020_1">
	<path fill="#008DD2" d="M142.708,14.614c-70.577,0-127.802,57.227-127.802,127.822c0,56.467,36.609,104.379,87.416,121.279
		c6.393,1.172,8.403-2.619,8.403-6.008c0-3.035,0.064-11.518,0-22.191c-35.549,7.732-42.917-16.83-42.917-16.83
		c-5.807-14.771-14.18-18.699-14.18-18.699c-11.604-7.924,0.87-7.779,0.87-7.779c12.824,0.906,19.584,13.18,19.584,13.18
		c11.403,19.514,29.909,13.881,37.187,10.619c1.166-8.262,4.476-13.896,8.125-17.086c-28.38-3.23-58.218-14.193-58.218-63.17
		c0-13.962,4.978-25.366,13.153-34.295c-1.318-3.231-5.713-16.23,1.254-33.835c0,0,10.73-3.433,35.141,13.112
		c10.194-2.834,21.134-4.249,32-4.297c10.86,0.048,21.792,1.463,31.999,4.297c24.406-16.538,35.131-13.112,35.131-13.112
		c6.959,17.604,2.573,30.604,1.263,33.835c8.175,8.929,13.142,20.333,13.142,34.295c0,49.11-29.888,59.907-58.37,63.059
		c4.591,3.957,8.759,11.627,8.759,23.549c0,15.98,0,31.182,0,35.379c0,3.42,2.059,7.203,8.551,5.963
		c50.75-16.932,87.33-64.813,87.33-121.264C270.528,71.84,213.303,14.614,142.708,14.614z M142.717,2.969
		c77.182,0,139.748,62.567,139.748,139.748c0,77.182-62.566,139.748-139.748,139.748c-77.18,0-139.748-62.566-139.748-139.748
		C2.969,65.536,65.536,2.969,142.717,2.969z"/>
</g>
</svg>
