<?xml version="1.0" encoding="utf-8"?>
<!-- Generator: Adobe Illustrator 16.0.0, SVG Export Plug-In . SVG Version: 6.00 Build 0)  -->
<!DOCTYPE svg PUBLIC "-//W3C//DTD SVG 1.1//EN" "http://www.w3.org/Graphics/SVG/1.1/DTD/svg11.dtd">
<svg version="1.1" id="Calque_1" xmlns="http://www.w3.org/2000/svg" xmlns:xlink="http://www.w3.org/1999/xlink" x="0px" y="0px"
	 width="2490px" height="2500px" viewBox="0 0 2490 2500" enable-background="new 0 0 2490 2500" xml:space="preserve">
<g>
	<path fill="#006699" d="M0,183.366C0,84.914,82.423,5,184.026,5h2121.947C2407.616,5,2490,84.914,2490,183.366v2133.297
		c0,98.481-82.384,178.337-184.026,178.337H184.026C82.433,2495,0,2415.154,0,2316.692V183.336V183.366z"/>
	<path fill="#FFFFFF" d="M756.688,2088.8V967.794H384.082V2088.8h372.645H756.688z M570.463,814.766
		c129.908,0,210.784-86.08,210.784-193.656c-2.432-110.026-80.876-193.704-208.313-193.704
		c-127.525,0-210.813,83.678-210.813,193.694c0,107.576,80.847,193.656,205.901,193.656h2.412L570.463,814.766z M962.93,2088.8
		h372.576v-625.953c0-33.46,2.432-67.007,12.274-90.904c26.923-66.968,88.229-136.289,191.186-136.289
		c134.791,0,188.744,102.79,188.744,253.504V2088.8h372.566v-642.751c0-344.311-183.794-504.536-428.932-504.536
		c-200.98,0-289.249,112.332-338.29,188.841h2.48V967.832H962.949c4.863,105.164-0.029,1121.006-0.029,1121.006L962.93,2088.8z"/>
</g>
</svg>
